# xmcd CD database file generated by Grip 2.94
# 
# Track frame offsets:
#       150
#       14007
#       27790
#       41395
#       55500
#       64527
#       75965
#       87345
#       99405
#       110460
#       123877
#       140280
#       151315
#       167222
#       182382
#       198885
#       208750
#       231155
#       248215
#       274350
#       291750
#       308025
# 
# Disc length: 4377 seconds
# 
# Revision: 3
# Processed by: cddbd v1.4b41PL1 Copyright (c) Steve Scherf et al.
# Submitted via: Grip 2.94
# 
DISCID=1d111716
DTITLE=Ella Fitzgerald - Ella Fitzgerald - Basin Street Blues
DYEAR=1900
DGENRE=
TTITLE0=basin street blues
TTITLE1=starlit hour
TTITLE2=we can't go on this way
TTITLE3=stairway to the stars
TTITLE4=lover come back to me
TTITLE5=is there somebody else
TTITLE6=a tisket, a tasket
TTITLE7=sing song swing
TTITLE8=that old black magic
TTITLE9=sugar blues
TTITLE10=it's a blue world
TTITLE11=flying home
TTITLE12=who ya hunchin
TTITLE13=chewin gum
TTITLE14=goin and gettin it
TTITLE15=I wanna be a rug cutter
TTITLE16=don't be that way
TTITLE17=can't we be freinds
TTITLE18=cheek to cheek
TTITLE19=a fine romance
TTITLE20=moonlight tn Vermont
TTITLE21=a foggy day in London town
EXTD=
EXTT0=
EXTT1=
EXTT2=
EXTT3=
EXTT4=
EXTT5=
EXTT6=
EXTT7=
EXTT8=
EXTT9=
EXTT10=
EXTT11=
EXTT12=
EXTT13=
EXTT14=
EXTT15=
EXTT16=
EXTT17=
EXTT18=
EXTT19=
EXTT20=
EXTT21=
PLAYORDER=
